<mxfile host="Electron" modified="2024-03-21T13:56:44.770Z" agent="Mozilla/5.0 (Macintosh; Intel Mac OS X 10_15_7) AppleWebKit/537.36 (KHTML, like Gecko) draw.io/24.0.4 Chrome/120.0.6099.109 Electron/28.1.0 Safari/537.36" etag="u2wQD23XnF8TPQ0twQk3" version="24.0.4" type="device">
  <diagram id="JGq5mMFjrIXwyw8050Zy" name="overview">
    <mxGraphModel dx="826" dy="617" grid="1" gridSize="10" guides="1" tooltips="1" connect="1" arrows="1" fold="1" page="1" pageScale="1" pageWidth="827" pageHeight="1169" math="0" shadow="0">
      <root>
        <mxCell id="0" />
        <mxCell id="1" parent="0" />
        <mxCell id="841vuY-KYuQ22B-3Zh2n-1" value="Inputs &#xa;Static definition of &#xa;a form input:&#xa;data type, component id, &#xa;params, behaviour, &#xa;validation" style="rounded=1;fontFamily=Space Grotesk;fontSize=14;align=center;" vertex="1" parent="1">
          <mxGeometry x="210" y="590" width="200" height="120" as="geometry" />
        </mxCell>
        <mxCell id="841vuY-KYuQ22B-3Zh2n-2" value="Notifiles&#xa;Engine" style="shape=hexagon;perimeter=hexagonPerimeter2;fixedSize=1;rounded=1;size=10;fontFamily=Space Grotesk;fontStyle=0;strokeColor=#e76f51;strokeWidth=2;fontColor=#E76F51;fontSize=14;" vertex="1" parent="1">
          <mxGeometry x="500" y="690" width="130" height="60" as="geometry" />
        </mxCell>
        <mxCell id="841vuY-KYuQ22B-3Zh2n-4" style="edgeStyle=orthogonalEdgeStyle;rounded=0;orthogonalLoop=1;jettySize=auto;html=1;entryX=0;entryY=0.5;entryDx=0;entryDy=0;startArrow=ERmany;startFill=0;curved=1;exitX=1;exitY=0.5;exitDx=0;exitDy=0;" edge="1" parent="1" source="841vuY-KYuQ22B-3Zh2n-1" target="841vuY-KYuQ22B-3Zh2n-2">
          <mxGeometry relative="1" as="geometry">
            <mxPoint x="160" y="590" as="sourcePoint" />
            <Array as="points">
              <mxPoint x="460" y="650" />
              <mxPoint x="460" y="720" />
            </Array>
          </mxGeometry>
        </mxCell>
        <mxCell id="841vuY-KYuQ22B-3Zh2n-7" style="edgeStyle=orthogonalEdgeStyle;rounded=0;orthogonalLoop=1;jettySize=auto;html=1;entryX=0;entryY=0.5;entryDx=0;entryDy=0;curved=1;startArrow=ERmany;startFill=0;" edge="1" parent="1" source="841vuY-KYuQ22B-3Zh2n-5" target="841vuY-KYuQ22B-3Zh2n-2">
          <mxGeometry relative="1" as="geometry" />
        </mxCell>
        <mxCell id="841vuY-KYuQ22B-3Zh2n-5" value="Components libraries&#xa;Provide a Notifiles &#xa;compatible component &#xa;by component type" style="rounded=1;fontFamily=Space Grotesk;fontSize=14;align=center;" vertex="1" parent="1">
          <mxGeometry x="210" y="740" width="200" height="100" as="geometry" />
        </mxCell>
      </root>
    </mxGraphModel>
  </diagram>
</mxfile>
